<svg width="113" height="64" viewBox="0 0 113 64" fill="none" xmlns="http://www.w3.org/2000/svg">
<g clip-path="url(#clip0_127_15)">
<path d="M32.0383 21.5394C26.2393 21.5394 21.5381 26.2405 21.5381 32.0394C21.5381 37.8387 26.2393 42.5394 32.0383 42.5394C37.8379 42.5394 42.5386 37.8387 42.5386 32.0394C42.5386 26.2408 37.8379 21.5399 32.0382 21.5399L32.0383 21.5394ZM36.8536 36.6835C36.6655 36.9919 36.2618 37.0897 35.9533 36.9004C33.488 35.3945 30.3844 35.0535 26.7294 35.8885C26.3772 35.9688 26.0262 35.7481 25.9459 35.3958C25.8653 35.0434 26.0851 34.6923 26.4382 34.6121C30.438 33.6983 33.8689 34.0917 36.6367 35.7832C36.9451 35.9725 37.0429 36.375 36.8536 36.6835ZM38.1388 33.8244C37.9018 34.2096 37.3978 34.3312 37.0128 34.0943C34.1904 32.3594 29.888 31.857 26.5496 32.8704C26.1167 33.0011 25.6594 32.7571 25.528 32.3249C25.3976 31.892 25.6417 31.4356 26.0739 31.3039C29.8873 30.1469 34.628 30.7073 37.8692 32.6991C38.2542 32.9361 38.3758 33.4401 38.1388 33.8245V33.8244ZM38.2491 30.8473C34.865 28.8372 29.2815 28.6524 26.0505 29.633C25.5316 29.7904 24.9829 29.4975 24.8257 28.9786C24.6685 28.4595 24.9611 27.9112 25.4803 27.7535C29.1894 26.6275 35.3552 26.8451 39.2515 29.1581C39.7192 29.435 39.8721 30.0378 39.595 30.5038C39.3192 30.9705 38.7148 31.1244 38.2497 30.8473H38.2491ZM50.1056 31.2324C48.2926 30.8001 47.9703 30.4967 47.9703 29.8591C47.9703 29.2567 48.5371 28.8514 49.3809 28.8514C50.1984 28.8514 51.0084 29.1592 51.8585 29.7929C51.8836 29.8121 51.9162 29.8197 51.9476 29.8147C51.9802 29.8099 52.0077 29.7925 52.0266 29.7663L52.9118 28.5185C52.9481 28.4671 52.9381 28.3962 52.8892 28.357C51.8773 27.5454 50.7388 27.1508 49.4072 27.1508C47.45 27.1508 46.082 28.3255 46.082 30.0063C46.082 31.8087 47.2619 32.4469 49.3007 32.9396C51.0348 33.3392 51.3282 33.674 51.3282 34.2723C51.3282 34.9356 50.7363 35.3481 49.7834 35.3481C48.7251 35.3481 47.8612 34.9908 46.8958 34.1557C46.8719 34.1344 46.8393 34.1256 46.8092 34.1269C46.7766 34.1294 46.7478 34.1444 46.7277 34.1682L45.7347 35.3494C45.6933 35.3995 45.6983 35.4722 45.746 35.5149C46.8694 36.518 48.2512 37.0471 49.7433 37.0471C51.8523 37.0471 53.2152 35.8948 53.2152 34.1106C53.219 32.605 52.3175 31.7712 50.1094 31.2341L50.1056 31.2324ZM57.9874 29.4444C57.0733 29.4444 56.3235 29.8046 55.7041 30.5424V29.7119C55.7041 29.6463 55.6515 29.5929 55.5863 29.5929H53.9625C53.8973 29.5929 53.8447 29.6463 53.8447 29.7119V38.9404C53.8447 39.0056 53.8973 39.0595 53.9625 39.0595H55.5863C55.6515 39.0595 55.7041 39.0056 55.7041 38.9404V36.0277C56.3235 36.7211 57.0733 37.0609 57.9874 37.0609C59.6864 37.0609 61.4067 35.7531 61.4067 33.253C61.4092 30.7525 59.6889 29.4443 57.9887 29.4443L57.9874 29.4444ZM59.5184 33.253C59.5184 34.5256 58.7347 35.4146 57.6113 35.4146C56.5016 35.4146 55.664 34.4855 55.664 33.253C55.664 32.0205 56.5016 31.0916 57.6113 31.0916C58.7159 31.0915 59.5184 32.0003 59.5184 33.2529V33.253ZM65.814 29.4444C63.626 29.4444 61.912 31.1291 61.912 33.2802C61.912 35.4083 63.6147 37.0747 65.7877 37.0747C67.9832 37.0747 69.7022 35.3958 69.7022 33.253C69.7022 31.1176 67.9945 29.4447 65.814 29.4447V29.4444ZM65.814 35.4271C64.6504 35.4271 63.7727 34.4917 63.7727 33.2524C63.7727 32.0075 64.6203 31.1041 65.7877 31.1041C66.9588 31.1041 67.8415 32.0391 67.8415 33.2796C67.8415 34.5243 66.9889 35.4271 65.814 35.4271ZM74.3741 29.5929H72.5873V27.7665C72.5873 27.7011 72.5347 27.6477 72.4695 27.6477H70.8457C70.7805 27.6477 70.7266 27.7011 70.7266 27.7665V29.5929H69.9467C69.8815 29.5929 69.8289 29.6463 69.8289 29.7119V31.1071C69.8289 31.1725 69.8815 31.2261 69.9467 31.2261H70.7266V34.8365C70.7266 36.2948 71.4526 37.0346 72.8858 37.0346C73.4676 37.0346 73.9503 36.9142 74.4054 36.6559C74.4431 36.6358 74.4656 36.5957 74.4656 36.5531V35.224C74.4656 35.1839 74.4443 35.145 74.4092 35.1237C74.3741 35.1011 74.3302 35.0998 74.2938 35.1187C73.9816 35.2754 73.6795 35.3481 73.3409 35.3481C72.8206 35.3481 72.5873 35.1111 72.5873 34.582V31.2267H74.3741C74.4393 31.2267 74.492 31.1733 74.492 31.1077V29.7126C74.4945 29.6471 74.4418 29.5937 74.3754 29.5937L74.3741 29.5929ZM80.5983 29.6V29.3757C80.5983 28.7158 80.8515 28.4215 81.4183 28.4215C81.7568 28.4215 82.0289 28.4888 82.3336 28.5903C82.3712 28.6021 82.4101 28.5962 82.4402 28.5738C82.4715 28.5513 82.4891 28.5153 82.4891 28.4772V27.1093C82.4891 27.057 82.4565 27.0107 82.4051 26.9953C82.0841 26.8996 81.6728 26.8014 81.0559 26.8014C79.5576 26.8014 78.7639 27.6458 78.7639 29.2423V29.5859H77.984C77.9188 29.5859 77.8648 29.6393 77.8648 29.7047V31.1071C77.8648 31.1725 77.9188 31.2261 77.984 31.2261H78.7639V36.7938C78.7639 36.8603 78.8178 36.9129 78.883 36.9129H80.5055C80.5719 36.9129 80.6246 36.8603 80.6246 36.7938V31.2264H82.1405L84.4627 36.7938C84.1993 37.3781 83.9398 37.4947 83.5862 37.4947C83.3003 37.4947 82.9981 37.4095 82.6909 37.2402C82.6621 37.2251 82.627 37.2226 82.5969 37.2314C82.5656 37.2427 82.5392 37.2653 82.5267 37.2954L81.9762 38.5028C81.9499 38.5605 81.9725 38.627 82.0277 38.657C82.6019 38.968 83.1198 39.1009 83.7605 39.1009C84.9592 39.1009 85.6225 38.5417 86.2055 37.0396L89.0217 29.7625C89.0367 29.7259 89.0317 29.6846 89.0091 29.6521C88.9878 29.6199 88.9515 29.6004 88.9126 29.6004H87.2224C87.171 29.6004 87.1259 29.6326 87.1096 29.6802L85.378 34.6246L83.4821 29.6769C83.4646 29.6309 83.4207 29.6004 83.3718 29.6004H80.5983V29.6ZM76.9897 29.5929H75.3659C75.3007 29.5929 75.2468 29.6463 75.2468 29.7119V36.7938C75.2468 36.8603 75.3007 36.9129 75.3659 36.9129H76.9897C77.0549 36.9129 77.1088 36.8603 77.1088 36.7938V29.7124C77.1088 29.6468 77.0561 29.5934 76.9897 29.5934V29.5929ZM76.1872 26.3681C75.5439 26.3681 75.0223 26.8887 75.0223 27.5318C75.0223 28.1753 75.5439 28.6965 76.1872 28.6965C76.8304 28.6965 77.3508 28.1753 77.3508 27.5318C77.3508 26.8888 76.8292 26.3681 76.1872 26.3681ZM90.4085 31.87C89.7665 31.87 89.2662 31.3541 89.2662 30.7275C89.2662 30.101 89.7728 29.5791 90.4147 29.5791C91.0567 29.5791 91.557 30.0949 91.557 30.721C91.557 31.3476 91.0504 31.87 90.4085 31.87ZM90.4147 29.6927C89.8292 29.6927 89.3866 30.1579 89.3866 30.7275C89.3866 31.2969 89.8267 31.7558 90.4085 31.7558C90.994 31.7558 91.4366 31.291 91.4366 30.721C91.4366 30.1516 90.9965 29.6927 90.4147 29.6927ZM90.668 30.8385L90.9915 31.2909H90.7182L90.4273 30.8758H90.1777V31.2909H89.9495V30.0917H90.4837C90.7633 30.0917 90.9464 30.2343 90.9464 30.4742C90.9476 30.6708 90.8335 30.791 90.6693 30.8385H90.668ZM90.4749 30.2974H90.1777V30.6767H90.4749C90.6229 30.6767 90.7119 30.6041 90.7119 30.4869C90.7119 30.3635 90.6229 30.2974 90.4749 30.2974Z" fill="#4C4C4D"/>
</g>
<defs>
<clipPath id="clip0_127_15">
<rect width="70" height="24" fill="white" transform="translate(21.5 20)"/>
</clipPath>
</defs>
</svg>
