<svg width="113" height="64" viewBox="0 0 113 64" fill="none" xmlns="http://www.w3.org/2000/svg">
<g clip-path="url(#clip0_127_11)">
<path d="M32.168 37.6975L37.0952 30.0306H32.7517C32.7149 29.8098 32.6991 29.5679 32.6991 29.2997C32.6991 29.042 32.7149 28.8054 32.7517 28.5898H39.7823L39.8717 28.8264L34.9076 36.5091H39.5614C39.5982 36.751 39.614 37.0034 39.614 37.2558C39.614 37.4977 39.5982 37.7291 39.5614 37.9499H32.2574L32.168 37.6975Z" fill="#4C4C4D"/>
<path d="M46.387 31.7818C46.387 31.0614 46.203 30.5671 45.8401 30.2831C45.4773 30.0044 44.9462 29.8624 44.252 29.8624C43.8261 29.8624 43.4265 29.894 43.0584 29.9624C42.685 30.0307 42.3274 30.1149 41.9699 30.2253C41.7385 29.8256 41.6228 29.3419 41.6228 28.7844C42.0382 28.653 42.4904 28.5478 42.99 28.4742C43.4896 28.4006 43.9681 28.3638 44.4308 28.3638C45.6455 28.3638 46.571 28.6425 47.2073 29.1946C47.8383 29.7468 48.1591 30.6354 48.1591 31.8502V37.7081C47.7332 37.8028 47.2178 37.908 46.6079 38.0079C45.9979 38.113 45.3774 38.1604 44.7463 38.1604C44.1521 38.1604 43.6105 38.1078 43.132 37.9974C42.6535 37.8869 42.2433 37.7134 41.9068 37.4662C41.5702 37.2243 41.3125 36.9141 41.1285 36.5355C40.9444 36.1569 40.8551 35.6994 40.8551 35.1683C40.8551 34.6477 40.9602 34.1849 41.1758 33.7905C41.3862 33.3962 41.6754 33.0649 42.0435 32.8072C42.4063 32.5443 42.827 32.3497 43.3055 32.2235C43.7788 32.0973 44.2783 32.0289 44.8042 32.0289C45.1933 32.0289 45.5141 32.0395 45.7612 32.0552C46.0084 32.071 46.2187 32.0973 46.3923 32.1183V31.7818H46.387ZM46.387 33.5539C46.203 33.5276 45.9716 33.5066 45.6929 33.4803C45.4142 33.454 45.1775 33.4435 44.983 33.4435C44.2258 33.4435 43.6526 33.5855 43.2582 33.8642C42.8638 34.1429 42.664 34.5688 42.664 35.142C42.664 35.5048 42.7323 35.794 42.8638 35.9991C42.9953 36.2042 43.1635 36.362 43.3634 36.4724C43.5632 36.5828 43.784 36.6512 44.0312 36.6722C44.2731 36.6985 44.5045 36.709 44.7253 36.709C45.004 36.709 45.2932 36.6932 45.593 36.6617C45.8927 36.6301 46.1556 36.5881 46.387 36.525V33.5539Z" fill="#4C4C4D"/>
<path d="M50.131 28.5902C50.252 28.5639 50.3782 28.5481 50.5044 28.5376C50.6306 28.5271 50.762 28.5218 50.8988 28.5218C51.0197 28.5218 51.1459 28.5271 51.2826 28.5376C51.4141 28.5481 51.5455 28.5691 51.6665 28.5902C51.677 28.6165 51.6928 28.6901 51.7138 28.8163C51.7296 28.9425 51.7506 29.0792 51.7664 29.2265C51.7822 29.3737 51.8032 29.5104 51.819 29.6471C51.8348 29.7839 51.8453 29.868 51.8453 29.9048C51.9662 29.7102 52.1135 29.5209 52.2817 29.3369C52.45 29.1528 52.6551 28.9898 52.8917 28.8426C53.1284 28.6954 53.3965 28.5797 53.6963 28.4955C53.996 28.4114 54.3273 28.3693 54.6901 28.3693C55.237 28.3693 55.7471 28.4587 56.2151 28.6428C56.6831 28.8268 57.0828 29.1055 57.4193 29.4894C57.7558 29.8733 58.0135 30.3623 58.2028 30.9513C58.3921 31.5402 58.4868 32.2396 58.4868 33.0441C58.4868 34.6532 58.0503 35.91 57.1827 36.8145C56.3098 37.7189 55.0793 38.1764 53.4859 38.1764C53.2178 38.1764 52.9443 38.1607 52.6656 38.1239C52.3869 38.087 52.1398 38.0397 51.9347 37.9766V42.2676C51.7874 42.2938 51.6349 42.3096 51.4667 42.3201C51.3037 42.3307 51.1512 42.3359 51.0197 42.3359C50.8882 42.3359 50.7357 42.3307 50.5727 42.3201C50.4097 42.3096 50.2572 42.2886 50.1258 42.2676V28.5902H50.131ZM51.9399 36.4201C52.1713 36.5042 52.4079 36.5673 52.6498 36.6041C52.8917 36.641 53.2072 36.6567 53.6016 36.6567C54.0381 36.6567 54.443 36.5884 54.8058 36.4464C55.1687 36.3044 55.4842 36.0888 55.7471 35.7996C56.01 35.5051 56.2151 35.137 56.3676 34.6953C56.5201 34.2536 56.5937 33.7225 56.5937 33.1178C56.5937 32.1449 56.4149 31.3719 56.0573 30.7988C55.6998 30.2256 55.1108 29.9416 54.2957 29.9416C53.9908 29.9416 53.7015 29.9942 53.4176 30.1046C53.1389 30.2151 52.8865 30.3781 52.6709 30.5989C52.45 30.8198 52.2765 31.0932 52.1398 31.4298C52.003 31.7663 51.9399 32.1607 51.9399 32.6235V36.4201Z" fill="#4C4C4D"/>
<path d="M60.7374 30.0096H59.549C59.5227 29.9097 59.5069 29.7992 59.4964 29.673C59.4859 29.5468 59.4806 29.4206 59.4806 29.2997C59.4806 29.1787 59.4859 29.0525 59.4964 28.9263C59.5069 28.8001 59.5279 28.6844 59.549 28.5898H62.5095V37.9552C62.3781 37.9815 62.2256 37.9972 62.0625 38.0078C61.8995 38.0183 61.747 38.0235 61.6156 38.0235C61.4946 38.0235 61.3526 38.0183 61.1844 38.0078C61.0214 37.9972 60.8689 37.9762 60.7374 37.9552V30.0096Z" fill="#4C4C4D"/>
<path d="M66.3955 33.7171C66.4218 34.7372 66.6848 35.4892 67.1896 35.9624C67.6944 36.4357 68.4411 36.6723 69.4244 36.6723C70.2868 36.6723 71.1124 36.5198 71.8907 36.2149C71.9906 36.3989 72.0695 36.6198 72.1273 36.8827C72.1904 37.1456 72.222 37.4033 72.2377 37.6609C71.8381 37.8292 71.3964 37.9607 70.9126 38.0448C70.4341 38.1289 69.8977 38.171 69.314 38.171C68.4621 38.171 67.7312 38.0501 67.1212 37.8134C66.5112 37.5768 66.0117 37.2403 65.6173 36.8091C65.2229 36.3779 64.9337 35.8678 64.7496 35.2736C64.5656 34.6846 64.4762 34.0378 64.4762 33.3279C64.4762 32.6338 64.5656 31.987 64.7391 31.3823C64.9126 30.7776 65.1861 30.257 65.5489 29.81C65.9118 29.3683 66.3745 29.0107 66.9267 28.753C67.4788 28.4901 68.1361 28.3586 68.8881 28.3586C69.5349 28.3586 70.0975 28.4691 70.5866 28.6899C71.0756 28.9108 71.4805 29.2105 71.8118 29.5944C72.1378 29.9783 72.3902 30.4358 72.5585 30.9616C72.7268 31.4927 72.8162 32.0659 72.8162 32.6864C72.8162 32.8547 72.8109 33.0387 72.7951 33.2228C72.7846 33.4121 72.7689 33.5751 72.7583 33.7065H66.3955V33.7171ZM71.0335 32.3656C71.0335 32.0238 70.9862 31.6978 70.8968 31.3875C70.8074 31.0773 70.6707 30.8091 70.4972 30.5777C70.3184 30.3464 70.0975 30.1623 69.8241 30.0203C69.5506 29.8784 69.2246 29.81 68.846 29.81C68.1046 29.81 67.5366 30.0361 67.137 30.4831C66.7426 30.9353 66.5007 31.5611 66.4166 32.3656H71.0335Z" fill="#4C4C4D"/>
<path d="M74.8144 28.5898C74.9459 28.5635 75.0774 28.5477 75.1983 28.5372C75.3193 28.5267 75.4455 28.5214 75.5822 28.5214C75.7136 28.5214 75.8504 28.5267 75.9818 28.5372C76.1133 28.5477 76.2395 28.5688 76.3447 28.5898C76.3815 28.7738 76.4183 29.0105 76.4551 29.3102C76.4919 29.6099 76.5077 29.8623 76.5077 30.0674C76.7654 29.652 77.1019 29.2944 77.5226 28.9894C77.9433 28.6844 78.4796 28.5319 79.1369 28.5319C79.2368 28.5319 79.3368 28.5372 79.4367 28.5425C79.5418 28.5477 79.626 28.5582 79.6996 28.5688C79.7259 28.6792 79.7417 28.7949 79.7522 28.9158C79.7627 29.0368 79.768 29.163 79.768 29.2997C79.768 29.4469 79.7574 29.5994 79.7417 29.7572C79.7259 29.9149 79.6996 30.0674 79.6786 30.2147C79.5786 30.1884 79.4787 30.1779 79.3788 30.1779C79.2737 30.1779 79.1948 30.1779 79.1317 30.1779C78.8056 30.1779 78.4901 30.2252 78.1904 30.3146C77.8907 30.404 77.6225 30.567 77.3859 30.7984C77.1492 31.0297 76.9599 31.3452 76.8179 31.7501C76.676 32.1498 76.6076 32.6704 76.6076 33.3014V37.9552C76.4761 37.9815 76.3236 37.9973 76.1606 38.0078C75.9976 38.0183 75.8451 38.0235 75.7136 38.0235C75.5822 38.0235 75.4297 38.0183 75.2667 38.0078C75.1037 37.9973 74.9459 37.9762 74.7987 37.9552V28.5898H74.8144Z" fill="#4C4C4D"/>
<path d="M64.229 23.0791H62.4621L63.7136 21.8276C63.6137 21.6908 63.5033 21.5594 63.3876 21.4384C63.2667 21.3175 63.1405 21.207 62.9985 21.1124L61.747 22.3639V20.5971C61.584 20.5708 61.4157 20.555 61.2421 20.555H61.2369C61.0634 20.555 60.8951 20.5708 60.7321 20.5971V22.3639L59.4806 21.1124C59.3438 21.2123 59.2124 21.3227 59.0914 21.4384C58.9705 21.5594 58.8653 21.6856 58.7654 21.8276L60.0222 23.0791H58.2553C58.2553 23.0791 58.2132 23.4104 58.2132 23.5839C58.2132 23.7574 58.229 23.9257 58.2553 24.0887H60.0222L58.7707 25.3402C58.9652 25.6137 59.2071 25.8556 59.4858 26.0554L60.7373 24.8039V26.5707C60.9003 26.597 61.0686 26.6128 61.2421 26.6128H61.2474C61.4209 26.6128 61.5892 26.597 61.7522 26.5707V24.8039L63.0037 26.0554C63.1405 25.9555 63.2719 25.845 63.3929 25.7294C63.5138 25.6084 63.6243 25.4822 63.7189 25.3402L62.4674 24.0887H64.2342C64.2605 23.9257 64.2763 23.7574 64.2763 23.5839V23.5786C64.271 23.4104 64.2605 23.2421 64.229 23.0791ZM61.9994 23.5892C61.9994 23.8153 61.9573 24.0309 61.8837 24.2307C61.6839 24.3043 61.4683 24.3464 61.2421 24.3464C61.016 24.3464 60.8004 24.3043 60.6006 24.2307C60.527 24.0309 60.4849 23.8153 60.4849 23.5892V23.5839C60.4849 23.3578 60.527 23.1422 60.6006 22.9424C60.8004 22.8687 61.016 22.8267 61.2421 22.8267C61.4683 22.8267 61.6839 22.8687 61.8837 22.9424C61.9573 23.1422 61.9994 23.3578 61.9994 23.5892Z" fill="#4C4C4D"/>
</g>
<defs>
<clipPath id="clip0_127_11">
<rect width="48" height="24" fill="white" transform="translate(32.167 20)"/>
</clipPath>
</defs>
</svg>
