<svg width="113" height="64" viewBox="0 0 113 64" fill="none" xmlns="http://www.w3.org/2000/svg">
<g clip-path="url(#clip0_127_19)">
<path fill-rule="evenodd" clip-rule="evenodd" d="M72.1876 30.2999C72.3747 30.6227 72.4359 30.99 72.4561 31.4029L72.4827 31.9532V35.8016L72.5098 36.3525C72.5641 37.2523 73.2277 37.9175 74.1343 37.9741L74.6824 38.0013V31.9532L74.7095 31.4029C74.732 30.9946 74.7927 30.6204 74.9827 30.2952C75.1763 29.9618 75.4542 29.6851 75.7885 29.493C76.1229 29.3009 76.5019 29.2001 76.8875 29.2008C77.2731 29.2015 77.6517 29.3037 77.9854 29.497C78.319 29.6903 78.5959 29.968 78.7883 30.3022C78.9754 30.625 79.0337 30.9992 79.0563 31.4029L79.0834 31.9515V35.8016L79.1105 36.3525C79.1671 37.2569 79.8255 37.9221 80.735 37.9741L81.283 38.0013V31.4029C81.283 30.2361 80.8197 29.1171 79.9948 28.2919C79.1699 27.4667 78.0511 27.0029 76.8843 27.0024C76.2598 27.0017 75.6424 27.1344 75.0733 27.3914C74.5041 27.6484 73.9964 28.024 73.584 28.4929C73.1714 28.0242 72.6636 27.6487 72.0945 27.3916C71.5254 27.1345 70.9081 27.0016 70.2836 27.0018C69.37 27.0018 68.5223 27.279 67.8201 27.7578C67.3916 27.2796 66.4329 27.0018 65.8826 27.0018V38.0013L66.4329 37.9741C67.3535 37.9135 68.0187 37.2661 68.0545 36.3525L68.084 35.8016V31.9532L68.1111 31.4029C68.1342 30.9877 68.192 30.6227 68.3796 30.2976C68.5734 29.9643 68.8512 29.6877 69.1853 29.4953C69.5194 29.303 69.8981 29.2017 70.2836 29.2015C70.6694 29.2016 71.0484 29.3031 71.3826 29.4959C71.7168 29.6887 71.9944 29.9659 72.1876 30.2999ZM34.5336 37.9747L35.084 38.0013H43.3334L43.3063 37.4526C43.2318 36.5483 42.5913 35.8876 41.6841 35.8287L41.1338 35.8016H36.1847L42.7831 29.2009L42.7559 28.6529C42.7132 27.7393 42.0456 27.0792 41.1338 27.029L40.5834 27.0041L32.334 27.0018L32.3611 27.5522C32.4333 28.4479 33.083 29.1224 33.9827 29.1743L34.5336 29.2015H39.4827L32.8843 35.8022L32.9115 36.3525C32.9658 37.2592 33.6201 37.9158 34.5336 37.9741V37.9747ZM63.7234 28.6119C64.2342 29.1226 64.6393 29.7289 64.9158 30.3962C65.1922 31.0635 65.3345 31.7787 65.3345 32.501C65.3345 33.2233 65.1922 33.9385 64.9158 34.6058C64.6393 35.2731 64.2342 35.8794 63.7234 36.3901C62.6914 37.4212 61.2922 38.0004 59.8334 38.0004C58.3746 38.0004 56.9754 37.4212 55.9434 36.3901C53.7958 34.2424 53.7958 30.7595 55.9434 28.6119C56.4538 28.1014 57.0596 27.6964 57.7265 27.42C58.3933 27.1437 59.1081 27.0014 59.8299 27.0013C60.5529 27.0008 61.269 27.1428 61.937 27.4193C62.6051 27.6957 63.2121 28.1012 63.7234 28.6124V28.6119ZM62.167 30.1694C62.7856 30.7884 63.1331 31.6278 63.1331 32.503C63.1331 33.3782 62.7856 34.2175 62.167 34.8366C61.548 35.4552 60.7086 35.8027 59.8334 35.8027C58.9582 35.8027 58.1188 35.4552 57.4998 34.8366C56.8812 34.2175 56.5337 33.3782 56.5337 32.503C56.5337 31.6278 56.8812 30.7884 57.4998 30.1694C58.1188 29.5507 58.9582 29.2032 59.8334 29.2032C60.7086 29.2032 61.548 29.5507 62.167 30.1694ZM48.2871 27.0013C49.009 27.0014 49.7238 27.1438 50.3906 27.4203C51.0575 27.6967 51.6633 28.1018 52.1736 28.6124C54.3219 30.7595 54.3219 34.243 52.1736 36.3901C51.1416 37.4212 49.7425 38.0004 48.2836 38.0004C46.8248 38.0004 45.4256 37.4212 44.3937 36.3901C42.246 34.2424 42.246 30.7595 44.3937 28.6119C44.904 28.1014 45.5099 27.6964 46.1767 27.42C46.8436 27.1437 47.5583 27.0014 48.2802 27.0013H48.2871ZM50.6173 30.1682C51.2361 30.7873 51.5837 31.6268 51.5837 32.5021C51.5837 33.3774 51.2361 34.2169 50.6173 34.836C49.9982 35.4547 49.1588 35.8021 48.2836 35.8021C47.4085 35.8021 46.5691 35.4547 45.95 34.836C45.3314 34.217 44.9839 33.3776 44.9839 32.5024C44.9839 31.6272 45.3314 30.7879 45.95 30.1688C46.5691 29.5502 47.4085 29.2027 48.2836 29.2027C49.1588 29.2027 49.9982 29.5502 50.6173 30.1688V30.1682Z" fill="#4C4C4D"/>
</g>
<defs>
<clipPath id="clip0_127_19">
<rect width="49" height="24" fill="white" transform="translate(32.334 20)"/>
</clipPath>
</defs>
</svg>
